<svg id="Layer_1" data-name="Layer 1" xmlns="http://www.w3.org/2000/svg" viewBox="0 0 360 240"><defs>
	<style>.cls-1{fill:#231f20;}.cls-2,.cls-5{fill:none;stroke-miterlimit:10;}.cls-2{stroke:#0c0c0c;stroke-width:2px;}.cls-3{fill:#006dd4;}.cls-4{fill:#d44400;}.cls-5{stroke:#d44400;}</style></defs><title>bus res logo</title><g id="draft_1" data-name="draft 1"><path class="cls-1" d="M96.57,25l3-.41a1.09,1.09,0,0,1,1.09.26A2.09,2.09,0,0,1,101,26c.07,1.16.09,2.33,0,3.49a2.29,2.29,0,0,1-.12.78c-.1.24-.3.42-.5.36s-.31-.32-.37-.57c-.33-1.34.08-3-.63-4.09a1.64,1.64,0,0,0-1.26-.7,4.31,4.31,0,0,0-1.4.21"/><path class="cls-2" d="M46.94,18.23c-5.72,6.29-10.55,13.49-15.22,20.58a91.26,91.26,0,0,1,12.9,19.24l6.88-.34"/><path class="cls-3" d="M89.37,61.76h-.54c-1.6-.05-3.37-.33-4.37-1.58a6.21,6.21,0,0,1-.89-3.94V51.79a7.61,7.61,0,0,0-.32-2.66,5.06,5.06,0,0,0-4.07-2.95,7.38,7.38,0,0,0-7.82,4.74,12.21,12.21,0,0,0-.48,4.19,29.91,29.91,0,0,1,0,3.5c-.05.44-1.57.68-1.93,0a9.62,9.62,0,0,1-.09-2.79,15.36,15.36,0,0,0-.62-5.06c-.85-2.53-2.94-4.84-5.59-5.12-2.86-.3-5.53,1.85-6.73,4.46a13.36,13.36,0,0,0-1.07,4.27,24.28,24.28,0,0,0-.09,2.8c0,.36.13,1.07-.17,1.34s-1.56.28-1.69-.18a4.59,4.59,0,0,1-.16-1.2,19.33,19.33,0,0,1,.13-3.32,14.71,14.71,0,0,1,1.51-5.05c1.56-3,4.65-5.29,8-5.17s6.15,2.55,7.49,5.54a10.09,10.09,0,0,1,7.58-4.91,7.5,7.5,0,0,1,6.89,2.76c2.11,3,1,7.08,1.36,10.72A2.41,2.41,0,0,0,86,58.92a2.52,2.52,0,0,0,1.78.72A21.9,21.9,0,0,0,94,59.42,2,2,0,0,0,95.11,59a2.08,2.08,0,0,0,.43-1.43c.4-9.78.71-19.57.19-29.34-.15-2.8-.53-5.92-2.7-7.69C91.18,19,88.59,19,86.21,19l-36.92.27A4.69,4.69,0,0,1,47.37,19a1.71,1.71,0,0,1-.94-.91c-.23-.71.19-.64.8-.66,1.3,0,2.6,0,3.9-.05l7.81-.1,15.61-.21,9.68-.13a26.22,26.22,0,0,1,6.38.44,8.82,8.82,0,0,1,5.32,3.32c1.25,1.81,1.51,4.11,1.67,6.3.75,9.93.35,19.91,0,29.86-.05,1.3-.17,2.75-1.12,3.64a4.64,4.64,0,0,1-2.56,1A28.41,28.41,0,0,1,89.37,61.76Z"/><path class="cls-1" d="M38.5,69.79a4.22,4.22,0,0,1-.42-.07.51.51,0,0,1-.2-.26c-.07-.28.08-.46.36-.51a30.93,30.93,0,0,1,3.11-.09c1.94,0,3.89,0,5.83,0,4.13,0,8-.1,13.63-.28a4.58,4.58,0,0,0,2.6-.59c.89-.67,1.13-2,1.27-3.14.33-2.62.52-5.27.58-7.92A4.79,4.79,0,0,1,62.16,59a3.93,3.93,0,0,1-3.74-1.73,7.63,7.63,0,0,1-.93-3.94c0-.83,0-2.25.55-2.92.25-.31.54-.47.88,0a2.59,2.59,0,0,1-.06,1.33,7.53,7.53,0,0,0,.4,5A2.91,2.91,0,0,0,62,58a4.06,4.06,0,0,0,2.93-2.63,4,4,0,0,0,.19-1.47c0-.57-.43-4.09.29-4.1,1,0,.79.76.83,1.66s0,1.71,0,2.57A80.57,80.57,0,0,1,65.67,65c-.18,1.48-.51,3-1.67,3.82a5.53,5.53,0,0,1-3.17.79c-4,.13-8,.14-12,.22-1.59,0-3.2.13-4.79.11C42,69.88,41.13,69.91,38.5,69.79Z"/><path class="cls-1" d="M77.85,60.07a4.14,4.14,0,0,1-3.27-1.37,4.6,4.6,0,0,1-.81-2.12,17.91,17.91,0,0,1-.1-4.33c0-.35.21-2.26.92-1.66a.88.88,0,0,1,.23.64c.08,1.33-.23,2.23-.23,3.56S75,58,76.13,58.69a3.5,3.5,0,0,0,1.88.43,3.19,3.19,0,0,0,2.48-1.06,4.43,4.43,0,0,0,.64-2.66l.09-3.91c0-.4.13-.93.53-1a.56.56,0,0,1,.52.38,1.65,1.65,0,0,1,.07.69L82.2,55a11,11,0,0,1-.28,2.36,3.69,3.69,0,0,1-1.23,2,4.15,4.15,0,0,1-2.24.74Z"/></g><path class="cls-4" d="M30.89,20.48c-.68-1.77-2.5-3.21-4.22-2.68a3.92,3.92,0,0,0-2.37,2.86,12.32,12.32,0,0,0-.16,4c.89,12,1.53,24.45,3.77,36.28,1.31-6.4,1.13-11.57,1.66-17.16l1.65-17.61A12.68,12.68,0,0,0,30.89,20.48Zm-3.16,5.74a2.05,2.05,0,1,1,1.92-2A2,2,0,0,1,27.73,26.22Z"/><path class="cls-3" d="M22.23,70.56a.5.5,0,0,1-.49-.33,1.4,1.4,0,0,1-.17-1,1.27,1.27,0,0,1,.45-.55,9.22,9.22,0,0,1,9.51-1.16,8.69,8.69,0,0,1,1.38.79c.36.25.89.57,1,1.06a1.33,1.33,0,0,1-.25.92c-.36.6-.66.23-1-.1a7.44,7.44,0,0,0-3-1.61,7.9,7.9,0,0,0-6.68,1.64A1,1,0,0,1,22.23,70.56Z"/><path class="cls-3" d="M23.91,65.91a.35.35,0,0,1-.34-.23,1,1,0,0,1-.12-.7.88.88,0,0,1,.32-.38,6.4,6.4,0,0,1,6.59-.8,6,6,0,0,1,1,.55c.25.18.62.4.69.74a.93.93,0,0,1-.17.64c-.25.42-.46.16-.73-.07A5.16,5.16,0,0,0,29,64.53a5.48,5.48,0,0,0-4.64,1.14A.72.72,0,0,1,23.91,65.91Z"/><rect class="cls-5" x="85.6" y="24.58" width="5.4" height="5.4" rx="0.73" ry="0.73"/></svg>